<svg xmlns="http://www.w3.org/2000/svg" xmlns:xlink="http://www.w3.org/1999/xlink" width="500" zoomAndPan="magnify" viewBox="0 0 375 374.999991" height="500" preserveAspectRatio="xMidYMid meet" version="1.0"><defs><g/><clipPath id="3a01a07a96"><path d="M 51.222656 51.871094 L 323.472656 51.871094 L 323.472656 324.121094 L 51.222656 324.121094 Z M 51.222656 51.871094 " clip-rule="nonzero"/></clipPath><clipPath id="5cd86f2c34"><path d="M 88.082031 88.730469 L 286.917969 88.730469 L 286.917969 287.5625 L 88.082031 287.5625 Z M 88.082031 88.730469 " clip-rule="nonzero"/></clipPath><clipPath id="345ddfc8d1"><path d="M 187.5 88.730469 C 132.59375 88.730469 88.082031 133.242188 88.082031 188.148438 C 88.082031 243.054688 132.59375 287.5625 187.5 287.5625 C 242.40625 287.5625 286.917969 243.054688 286.917969 188.148438 C 286.917969 133.242188 242.40625 88.730469 187.5 88.730469 " clip-rule="nonzero"/></clipPath></defs><g clip-path="url(#3a01a07a96)"><path fill="#ffffff" d="M 187.347656 324.121094 C 112.3125 324.121094 51.222656 263.03125 51.222656 187.996094 C 51.222656 112.960938 112.3125 51.871094 187.347656 51.871094 C 262.386719 51.871094 323.472656 112.960938 323.472656 187.996094 C 323.472656 263.03125 262.386719 324.121094 187.347656 324.121094 Z M 187.347656 53.882812 C 113.386719 53.882812 53.234375 114.03125 53.234375 187.996094 C 53.234375 261.960938 113.386719 322.109375 187.347656 322.109375 C 261.3125 322.109375 321.460938 261.960938 321.460938 187.996094 C 321.460938 114.03125 261.3125 53.882812 187.347656 53.882812 Z M 187.347656 53.882812 " fill-opacity="1" fill-rule="nonzero"/></g><path fill="#ffffff" d="M 68.675781 103.859375 C 68.078125 103.378906 67.53125 102.851562 67.035156 102.269531 C 66.539062 101.683594 66.101562 101.0625 65.726562 100.394531 C 65.347656 99.726562 65.039062 99.03125 64.792969 98.304688 C 64.550781 97.574219 64.378906 96.832031 64.277344 96.074219 C 64.175781 95.3125 64.148438 94.550781 64.195312 93.785156 C 64.238281 93.019531 64.355469 92.265625 64.542969 91.519531 C 64.734375 90.777344 64.992188 90.058594 65.316406 89.367188 C 65.644531 88.671875 66.035156 88.019531 66.484375 87.398438 C 68.351562 85.214844 70.273438 83.078125 72.253906 80.996094 C 74.234375 78.914062 76.269531 76.886719 78.359375 74.914062 C 80.449219 72.945312 82.589844 71.03125 84.78125 69.175781 C 86.972656 67.320312 89.214844 65.523438 91.5 63.789062 C 93.789062 62.054688 96.125 60.382812 98.503906 58.777344 C 100.878906 57.167969 103.300781 55.625 105.761719 54.148438 C 108.222656 52.671875 110.722656 51.265625 113.257812 49.925781 C 115.792969 48.582031 118.367188 47.3125 120.972656 46.109375 C 123.574219 44.910156 126.210938 43.78125 128.878906 42.722656 C 131.542969 41.664062 134.234375 40.675781 136.953125 39.765625 C 139.671875 38.851562 142.414062 38.015625 145.179688 37.25 C 147.941406 36.488281 150.722656 35.796875 153.523438 35.183594 C 156.324219 34.574219 159.140625 34.035156 161.96875 33.574219 C 164.800781 33.117188 167.640625 32.734375 170.488281 32.425781 C 173.339844 32.121094 176.195312 31.890625 179.058594 31.742188 C 181.921875 31.589844 184.785156 31.515625 187.652344 31.519531 C 190.519531 31.523438 193.382812 31.605469 196.246094 31.765625 C 199.105469 31.925781 201.960938 32.164062 204.8125 32.476562 C 207.660156 32.792969 210.5 33.183594 213.328125 33.652344 C 216.15625 34.121094 218.96875 34.664062 221.769531 35.285156 C 224.566406 35.90625 227.347656 36.605469 230.109375 37.375 C 232.871094 38.148438 235.609375 38.992188 238.324219 39.914062 C 241.042969 40.835938 243.730469 41.828125 246.394531 42.894531 C 249.058594 43.960938 251.6875 45.097656 254.289062 46.308594 C 256.890625 47.515625 259.460938 48.796875 261.992188 50.144531 C 264.523438 51.492188 267.019531 52.910156 269.476562 54.390625 C 271.933594 55.875 274.347656 57.425781 276.722656 59.039062 C 279.097656 60.652344 281.425781 62.332031 283.707031 64.074219 C 285.992188 65.8125 288.226562 67.617188 290.414062 69.476562 C 292.597656 71.339844 294.734375 73.261719 296.816406 75.238281 C 298.902344 77.214844 300.929688 79.25 302.90625 81.335938 C 304.878906 83.425781 306.796875 85.566406 308.65625 87.757812 C 309.105469 88.378906 309.492188 89.035156 309.816406 89.726562 C 310.140625 90.421875 310.398438 91.140625 310.582031 91.882812 C 310.769531 92.628906 310.886719 93.382812 310.929688 94.148438 C 310.972656 94.914062 310.941406 95.675781 310.835938 96.4375 C 310.734375 97.195312 310.558594 97.9375 310.3125 98.664062 C 310.066406 99.390625 309.757812 100.085938 309.378906 100.753906 C 309 101.417969 308.5625 102.042969 308.0625 102.625 C 307.566406 103.207031 307.015625 103.734375 306.417969 104.207031 L 287.183594 118.332031 C 286.554688 118.84375 285.882812 119.289062 285.167969 119.664062 C 284.449219 120.039062 283.703125 120.339844 282.925781 120.5625 C 282.148438 120.789062 281.355469 120.929688 280.550781 120.992188 C 279.746094 121.050781 278.941406 121.03125 278.136719 120.925781 C 277.335938 120.824219 276.554688 120.640625 275.789062 120.378906 C 275.023438 120.113281 274.292969 119.773438 273.597656 119.363281 C 272.898438 118.949219 272.253906 118.46875 271.652344 117.925781 C 271.054688 117.378906 270.515625 116.777344 270.039062 116.121094 C 268.738281 114.683594 267.398438 113.28125 266.027344 111.910156 C 264.652344 110.542969 263.242188 109.210938 261.800781 107.914062 C 260.359375 106.621094 258.882812 105.363281 257.375 104.144531 C 255.867188 102.925781 254.328125 101.75 252.757812 100.609375 C 251.191406 99.472656 249.59375 98.378906 247.96875 97.324219 C 246.34375 96.269531 244.691406 95.257812 243.011719 94.289062 C 241.335938 93.320312 239.632812 92.398438 237.90625 91.519531 C 236.183594 90.640625 234.433594 89.804688 232.667969 89.019531 C 230.898438 88.230469 229.109375 87.488281 227.300781 86.792969 C 225.496094 86.101562 223.671875 85.453125 221.832031 84.855469 C 219.992188 84.253906 218.136719 83.703125 216.265625 83.203125 C 214.398438 82.699219 212.515625 82.246094 210.625 81.84375 C 208.730469 81.4375 206.828125 81.082031 204.917969 80.777344 C 203.007812 80.472656 201.089844 80.21875 199.167969 80.015625 C 197.242188 79.8125 195.316406 79.65625 193.382812 79.550781 C 191.449219 79.449219 189.515625 79.394531 187.582031 79.390625 C 185.648438 79.390625 183.714844 79.4375 181.78125 79.535156 C 179.847656 79.632812 177.921875 79.78125 175.996094 79.980469 C 174.070312 80.179688 172.152344 80.429688 170.242188 80.726562 C 168.328125 81.027344 166.425781 81.375 164.535156 81.773438 C 162.640625 82.171875 160.757812 82.621094 158.886719 83.117188 C 157.015625 83.613281 155.160156 84.160156 153.316406 84.753906 C 151.476562 85.347656 149.648438 85.988281 147.839844 86.675781 C 146.03125 87.367188 144.242188 88.101562 142.46875 88.886719 C 140.699219 89.667969 138.949219 90.496094 137.222656 91.371094 C 135.492188 92.246094 133.789062 93.164062 132.109375 94.125 C 130.425781 95.089844 128.773438 96.09375 127.144531 97.144531 C 125.515625 98.195312 123.914062 99.285156 122.34375 100.417969 C 120.769531 101.550781 119.230469 102.726562 117.71875 103.9375 C 116.207031 105.152344 114.726562 106.40625 113.28125 107.695312 C 111.832031 108.988281 110.421875 110.3125 109.042969 111.679688 C 107.664062 113.042969 106.324219 114.445312 105.019531 115.878906 C 104.539062 116.53125 104 117.132812 103.398438 117.675781 C 102.796875 118.21875 102.148438 118.695312 101.453125 119.109375 C 100.753906 119.519531 100.023438 119.855469 99.257812 120.117188 C 98.492188 120.378906 97.707031 120.558594 96.90625 120.660156 C 96.101562 120.761719 95.296875 120.78125 94.492188 120.714844 C 93.6875 120.652344 92.894531 120.507812 92.117188 120.28125 C 91.339844 120.054688 90.59375 119.753906 89.878906 119.375 C 89.164062 118.996094 88.492188 118.550781 87.867188 118.035156 Z M 68.675781 103.859375 " fill-opacity="1" fill-rule="nonzero"/><g fill="#ffffff" fill-opacity="1"><g transform="translate(91.042789, 107.369354)"><g><path d="M 0.125 -0.121094 L 2.988281 -2.957031 L 0.988281 -7.257812 L 6.667969 -12.875 L 10.933594 -10.8125 L 13.769531 -13.617188 L -6.511719 -22.476562 L -8.476562 -20.53125 Z M -0.34375 -10.382812 L -3.667969 -17.65625 L 3.558594 -14.238281 Z M -0.34375 -10.382812 "/></g></g></g><g fill="#ffffff" fill-opacity="1"><g transform="translate(105.932693, 92.97868)"><g><path d="M 2.132812 -1.566406 L 12.199219 -8.953125 L 10.132812 -11.769531 L 3.046875 -6.570312 L -7.050781 -20.328125 L -10.03125 -18.140625 Z M 2.132812 -1.566406 "/></g></g></g><g fill="#ffffff" fill-opacity="1"><g transform="translate(119.201767, 83.019368)"><g><path d="M 10.011719 -4.839844 C 16.046875 -7.957031 16.546875 -13.8125 13.976562 -18.792969 C 11.40625 -23.769531 6.34375 -26.753906 0.308594 -23.636719 C -5.730469 -20.523438 -6.226562 -14.664062 -3.660156 -9.6875 C -1.089844 -4.710938 3.972656 -1.722656 10.011719 -4.839844 Z M 8.507812 -7.75 C 4.59375 -5.726562 1.589844 -8.023438 -0.195312 -11.476562 C -1.96875 -14.914062 -2.101562 -18.695312 1.816406 -20.714844 C 5.730469 -22.738281 8.734375 -20.441406 10.511719 -17.003906 C 12.292969 -13.550781 12.425781 -9.773438 8.507812 -7.75 Z M 8.507812 -7.75 "/></g></g></g><g fill="#ffffff" fill-opacity="1"><g transform="translate(140.034326, 72.616309)"><g><path d="M 7.117188 -2.019531 C 11.902344 -3.582031 12.675781 -7.34375 11.316406 -11.503906 L 7.234375 -23.992188 L -3.632812 -20.441406 L -2.582031 -17.21875 L 4.777344 -19.621094 L 7.824219 -10.300781 C 8.652344 -7.757812 8.597656 -6.101562 6.054688 -5.269531 C 3.953125 -4.582031 2.53125 -5.878906 1.765625 -7.757812 L -1.558594 -6.226562 C -0.179688 -2.847656 3.117188 -0.714844 7.117188 -2.019531 Z M 7.117188 -2.019531 "/></g></g></g><g fill="#ffffff" fill-opacity="1"><g transform="translate(156.877239, 67.085605)"><g><path d="M 0.171875 -0.0273438 L 4.148438 -0.691406 L 4.992188 -5.359375 L 12.871094 -6.671875 L 15.167969 -2.527344 L 19.101562 -3.183594 L 7.644531 -22.117188 L 4.914062 -21.660156 Z M 5.707031 -8.679688 L 7.1875 -16.539062 L 11.117188 -9.582031 Z M 5.707031 -8.679688 "/></g></g></g><g fill="#ffffff" fill-opacity="1"><g transform="translate(177.012396, 63.503656)"><g><path d="M 2.648438 0.0546875 L 6.195312 0.128906 L 6.519531 -15.246094 L 11.324219 -1.550781 L 14.902344 -1.476562 L 20.28125 -14.957031 L 19.957031 0.417969 L 23.507812 0.492188 L 23.9375 -20.0625 L 18.964844 -20.164062 L 13.203125 -5.660156 L 8.054688 -20.394531 L 3.078125 -20.5 Z M 2.648438 0.0546875 "/></g></g></g><g fill="#ffffff" fill-opacity="1"><g transform="translate(204.277026, 64.791287)"><g><path d="M 2.609375 0.441406 L 6.253906 1.0625 L 9.695312 -19.207031 L 6.050781 -19.824219 Z M 2.609375 0.441406 "/></g></g></g><g fill="#ffffff" fill-opacity="1"><g transform="translate(214.578363, 66.353198)"><g><path d="M 2.539062 0.746094 L 15.664062 4.601562 L 16.648438 1.25 L 7.070312 -1.5625 L 8.507812 -6.449219 L 17.425781 -3.828125 L 18.382812 -7.082031 L 9.460938 -9.699219 L 10.925781 -14.683594 L 20.5 -11.871094 L 21.457031 -15.125 L 8.335938 -18.980469 Z M 2.539062 0.746094 "/></g></g></g><g fill="#ffffff" fill-opacity="1"><g transform="translate(232.993122, 71.7253)"><g><path d="M 2.386719 1.148438 L 5.585938 2.683594 L 11.832031 -10.308594 L 13.347656 6.417969 L 16.679688 8.019531 L 25.585938 -10.511719 L 22.386719 -12.046875 L 16.152344 0.921875 L 14.597656 -15.792969 L 11.292969 -17.382812 Z M 2.386719 1.148438 "/></g></g></g><g fill="#ffffff" fill-opacity="1"><g transform="translate(252.919104, 81.574912)"><g><path d="M 5.53125 3.84375 L 8.570312 5.949219 L 18.410156 -8.222656 L 23.695312 -4.554688 L 25.578125 -7.265625 L 11.964844 -16.71875 L 10.082031 -14.007812 L 15.375 -10.332031 Z M 5.53125 3.84375 "/></g></g></g><g fill="#ffffff" fill-opacity="1"><g transform="translate(267.968487, 91.881288)"><g><path d="M 7.777344 7.945312 C 12.65625 12.675781 18.367188 11.28125 22.265625 7.257812 C 26.164062 3.238281 27.382812 -2.511719 22.503906 -7.242188 C 17.625 -11.972656 11.914062 -10.578125 8.015625 -6.554688 C 4.117188 -2.535156 2.898438 3.214844 7.777344 7.945312 Z M 10.058594 5.597656 C 6.890625 2.527344 8.113281 -1.050781 10.816406 -3.839844 C 13.511719 -6.621094 17.050781 -7.949219 20.214844 -4.882812 C 23.378906 -1.8125 22.160156 1.765625 19.464844 4.542969 C 16.761719 7.332031 13.222656 8.664062 10.058594 5.597656 Z M 10.058594 5.597656 "/></g></g></g><g clip-path="url(#5cd86f2c34)"><g clip-path="url(#345ddfc8d1)"><path fill="#ffffff" d="M 88.082031 88.730469 L 286.917969 88.730469 L 286.917969 287.5625 L 88.082031 287.5625 Z M 88.082031 88.730469 " fill-opacity="1" fill-rule="nonzero"/></g></g><path fill="#ffffff" d="M 310.335938 261.824219 C 311.007812 262.230469 311.636719 262.699219 312.21875 263.226562 C 312.800781 263.753906 313.328125 264.332031 313.796875 264.960938 C 314.269531 265.589844 314.675781 266.261719 315.019531 266.96875 C 315.363281 267.675781 315.632812 268.40625 315.835938 269.167969 C 316.039062 269.925781 316.167969 270.695312 316.21875 271.480469 C 316.273438 272.265625 316.253906 273.046875 316.15625 273.824219 C 316.058594 274.605469 315.890625 275.371094 315.648438 276.117188 C 315.402344 276.863281 315.09375 277.582031 314.710938 278.269531 C 312.980469 280.871094 311.175781 283.414062 309.289062 285.90625 C 307.402344 288.398438 305.441406 290.828125 303.40625 293.195312 C 301.371094 295.566406 299.265625 297.871094 297.089844 300.113281 C 294.910156 302.355469 292.667969 304.527344 290.355469 306.628906 C 288.046875 308.730469 285.671875 310.761719 283.234375 312.71875 C 280.800781 314.675781 278.308594 316.558594 275.753906 318.363281 C 273.203125 320.167969 270.601562 321.890625 267.941406 323.535156 C 265.285156 325.179688 262.578125 326.742188 259.824219 328.21875 C 257.074219 329.699219 254.277344 331.089844 251.4375 332.398438 C 248.597656 333.703125 245.722656 334.921875 242.808594 336.054688 C 239.894531 337.183594 236.945312 338.222656 233.96875 339.171875 C 230.992188 340.121094 227.984375 340.980469 224.957031 341.742188 C 221.925781 342.507812 218.875 343.179688 215.800781 343.757812 C 212.730469 344.335938 209.640625 344.816406 206.539062 345.207031 C 203.4375 345.59375 200.328125 345.886719 197.207031 346.082031 C 194.089844 346.28125 190.964844 346.382812 187.839844 346.386719 C 184.714844 346.394531 181.589844 346.304688 178.46875 346.117188 C 175.347656 345.929688 172.238281 345.648438 169.132812 345.273438 C 166.03125 344.894531 162.941406 344.421875 159.867188 343.855469 C 156.792969 343.289062 153.742188 342.628906 150.707031 341.875 C 147.671875 341.121094 144.667969 340.273438 141.683594 339.335938 C 138.703125 338.394531 135.753906 337.367188 132.835938 336.246094 C 129.917969 335.125 127.035156 333.917969 124.191406 332.621094 C 121.347656 331.324219 118.546875 329.941406 115.789062 328.472656 C 113.03125 327.003906 110.320312 325.453125 107.65625 323.816406 C 104.992188 322.179688 102.382812 320.464844 99.824219 318.671875 C 97.265625 316.875 94.765625 315.003906 92.324219 313.054688 C 89.882812 311.105469 87.5 309.082031 85.183594 306.988281 C 82.867188 304.894531 80.613281 302.730469 78.429688 300.496094 C 76.242188 298.265625 74.128906 295.964844 72.085938 293.601562 C 70.042969 291.238281 68.074219 288.816406 66.179688 286.332031 C 64.285156 283.847656 62.46875 281.308594 60.726562 278.714844 C 60.34375 278.027344 60.03125 277.3125 59.785156 276.566406 C 59.539062 275.820312 59.367188 275.054688 59.269531 274.277344 C 59.167969 273.496094 59.144531 272.714844 59.195312 271.933594 C 59.246094 271.148438 59.371094 270.375 59.570312 269.617188 C 59.769531 268.855469 60.042969 268.121094 60.382812 267.414062 C 60.722656 266.707031 61.125 266.035156 61.59375 265.40625 C 62.0625 264.773438 62.589844 264.195312 63.167969 263.664062 C 63.75 263.132812 64.375 262.664062 65.046875 262.253906 L 86.519531 250.277344 C 87.226562 249.828125 87.96875 249.453125 88.753906 249.15625 C 89.535156 248.855469 90.339844 248.640625 91.167969 248.503906 C 91.996094 248.371094 92.828125 248.320312 93.664062 248.355469 C 94.5 248.394531 95.324219 248.511719 96.136719 248.714844 C 96.949219 248.921875 97.734375 249.203125 98.488281 249.570312 C 99.242188 249.933594 99.953125 250.367188 100.617188 250.878906 C 101.285156 251.386719 101.890625 251.957031 102.4375 252.589844 C 102.988281 253.222656 103.464844 253.90625 103.875 254.636719 C 105.070312 256.28125 106.3125 257.890625 107.605469 259.464844 C 108.898438 261.035156 110.234375 262.570312 111.617188 264.0625 C 112.996094 265.554688 114.421875 267.007812 115.890625 268.417969 C 117.359375 269.824219 118.867188 271.191406 120.414062 272.511719 C 121.960938 273.832031 123.546875 275.105469 125.171875 276.332031 C 126.796875 277.558594 128.453125 278.738281 130.148438 279.867188 C 131.839844 280.996094 133.566406 282.074219 135.324219 283.101562 C 137.082031 284.128906 138.867188 285.101562 140.679688 286.023438 C 142.496094 286.945312 144.335938 287.816406 146.203125 288.628906 C 148.066406 289.441406 149.957031 290.199219 151.867188 290.902344 C 153.777344 291.605469 155.707031 292.25 157.65625 292.835938 C 159.605469 293.425781 161.570312 293.957031 163.550781 294.429688 C 165.53125 294.898438 167.523438 295.3125 169.527344 295.667969 C 171.53125 296.023438 173.546875 296.320312 175.566406 296.554688 C 177.589844 296.789062 179.617188 296.96875 181.648438 297.082031 C 183.683594 297.199219 185.71875 297.257812 187.753906 297.253906 C 189.789062 297.25 191.824219 297.183594 193.855469 297.0625 C 195.886719 296.9375 197.914062 296.753906 199.933594 296.511719 C 201.957031 296.269531 203.96875 295.964844 205.972656 295.605469 C 207.976562 295.242188 209.96875 294.820312 211.945312 294.34375 C 213.925781 293.863281 215.886719 293.328125 217.832031 292.730469 C 219.78125 292.136719 221.707031 291.484375 223.617188 290.777344 C 225.523438 290.066406 227.410156 289.300781 229.273438 288.484375 C 231.136719 287.664062 232.972656 286.789062 234.785156 285.859375 C 236.597656 284.933594 238.378906 283.949219 240.132812 282.917969 C 241.886719 281.882812 243.609375 280.800781 245.296875 279.664062 C 246.984375 278.53125 248.640625 277.347656 250.261719 276.113281 C 251.878906 274.878906 253.460938 273.601562 255.003906 272.273438 C 256.546875 270.949219 258.050781 269.578125 259.515625 268.164062 C 260.976562 266.75 262.398438 265.292969 263.773438 263.796875 C 265.148438 262.296875 266.480469 260.757812 267.765625 259.183594 C 269.054688 257.605469 270.292969 255.992188 271.480469 254.34375 C 271.886719 253.609375 272.363281 252.925781 272.910156 252.292969 C 273.457031 251.65625 274.0625 251.085938 274.722656 250.574219 C 275.386719 250.0625 276.097656 249.621094 276.847656 249.253906 C 277.601562 248.890625 278.382812 248.601562 279.195312 248.394531 C 280.007812 248.1875 280.832031 248.066406 281.667969 248.027344 C 282.507812 247.988281 283.339844 248.035156 284.167969 248.167969 C 284.992188 248.296875 285.800781 248.511719 286.582031 248.808594 C 287.367188 249.101562 288.113281 249.476562 288.820312 249.921875 Z M 310.335938 261.824219 " fill-opacity="1" fill-rule="nonzero"/><g fill="#ffffff" fill-opacity="1"><g transform="translate(75.304379, 271.983646)"><g><path d="M 1.742188 2.101562 L 4.171875 5.035156 L 10.988281 -0.609375 L 16.910156 6.542969 L 10.09375 12.1875 L 12.523438 15.121094 L 28.847656 1.601562 L 26.417969 -1.332031 L 19.601562 4.3125 L 13.679688 -2.839844 L 20.496094 -8.484375 L 18.0625 -11.417969 Z M 1.742188 2.101562 "/></g></g></g><g fill="#ffffff" fill-opacity="1"><g transform="translate(92.536475, 292.037996)"><g><path d="M 0.136719 0.113281 L 3.332031 2.773438 L 7.546875 0.285156 L 13.878906 5.550781 L 12.191406 10.136719 L 15.351562 12.765625 L 22.410156 -8.929688 L 20.21875 -10.753906 Z M 10.621094 -1.390625 L 17.75 -5.53125 L 14.96875 2.222656 Z M 10.621094 -1.390625 "/></g></g></g><g fill="#ffffff" fill-opacity="1"><g transform="translate(111.316809, 307.15192)"><g><path d="M 2.367188 1.359375 L 9.535156 5.472656 C 12.65625 7.265625 16.628906 7.003906 18.59375 3.582031 C 19.648438 1.75 19.523438 -0.984375 18.226562 -2.613281 C 19.585938 -2.574219 21.367188 -3.351562 22.328125 -5.03125 C 24.441406 -8.710938 22.089844 -11.757812 19.292969 -13.363281 L 12.921875 -17.023438 Z M 11.976562 -7.722656 L 14.515625 -12.144531 L 17.636719 -10.355469 C 19.210938 -9.449219 20.015625 -8.019531 19.195312 -6.589844 C 18.15625 -4.78125 16.644531 -5.042969 15.355469 -5.78125 Z M 7.480469 0.109375 L 10.339844 -4.875 L 14.125 -2.699219 C 15.855469 -1.707031 16.304688 0.0390625 15.550781 1.351562 C 14.558594 3.082031 13.097656 3.335938 11.394531 2.355469 Z M 7.480469 0.109375 "/></g></g></g><g fill="#ffffff" fill-opacity="1"><g transform="translate(131.250865, 317.960637)"><g><path d="M 2.523438 1.039062 L 6.046875 2.492188 L 14.125 -17.101562 L 10.601562 -18.554688 Z M 2.523438 1.039062 "/></g></g></g><g fill="#ffffff" fill-opacity="1"><g transform="translate(143.086207, 322.883937)"><g><path d="M 6.699219 1.828125 L 10.375 2.832031 L 15.058594 -14.328125 L 21.457031 -12.585938 L 22.351562 -15.867188 L 5.871094 -20.367188 L 4.972656 -17.082031 L 11.382812 -15.332031 Z M 6.699219 1.828125 "/></g></g></g><g fill="#ffffff" fill-opacity="1"><g transform="translate(164.003734, 328.360364)"><g><path d="M 0.179688 0.0195312 L 4.3125 0.429688 L 6.414062 -3.988281 L 14.605469 -3.171875 L 15.777344 1.574219 L 19.867188 1.980469 L 13.566406 -19.945312 L 10.730469 -20.230469 Z M 8.019531 -7.097656 L 11.609375 -14.519531 L 13.644531 -6.539062 Z M 8.019531 -7.097656 "/></g></g></g><g fill="#ffffff" fill-opacity="1"><g transform="translate(188.113611, 330.454367)"><g><path d="M 11.476562 -0.648438 C 15.675781 -0.996094 18.863281 -3.410156 20.210938 -7.496094 L 16.578125 -8.640625 C 15.679688 -5.707031 13.898438 -4.476562 11.179688 -4.25 C 6.648438 -3.875 4.453125 -6.929688 4.105469 -11.132812 C 3.785156 -15.046875 5.445312 -18.421875 9.917969 -18.789062 C 12.667969 -19.019531 14.9375 -18.121094 15.960938 -15.40625 L 19.386719 -17.105469 C 17.355469 -20.910156 13.832031 -22.757812 9.648438 -22.410156 C 2.695312 -21.835938 -0.125 -16.457031 0.351562 -10.671875 C 0.832031 -4.871094 4.523438 -0.0742188 11.476562 -0.648438 Z M 11.476562 -0.648438 "/></g></g></g><g fill="#ffffff" fill-opacity="1"><g transform="translate(213.08439, 327.708583)"><g><path d="M 2.664062 -0.601562 L 6.378906 -1.4375 L 1.71875 -22.113281 L -2 -21.277344 Z M 2.664062 -0.601562 "/></g></g></g><g fill="#ffffff" fill-opacity="1"><g transform="translate(225.834596, 325.062816)"><g><path d="M 10.804688 -3.828125 C 17.34375 -6.34375 18.515625 -12.289062 16.445312 -17.679688 C 14.371094 -23.070312 9.523438 -26.703125 2.984375 -24.1875 C -3.554688 -21.675781 -4.726562 -15.730469 -2.65625 -10.339844 C -0.585938 -4.949219 4.265625 -1.316406 10.804688 -3.828125 Z M 9.59375 -6.980469 C 5.351562 -5.351562 2.535156 -8.042969 1.097656 -11.78125 C -0.332031 -15.507812 -0.0429688 -19.394531 4.199219 -21.023438 C 8.441406 -22.65625 11.261719 -19.960938 12.691406 -16.238281 C 14.128906 -12.496094 13.835938 -8.609375 9.59375 -6.980469 Z M 9.59375 -6.980469 "/></g></g></g><g fill="#ffffff" fill-opacity="1"><g transform="translate(250.944461, 314.924264)"><g><path d="M 2.3125 -1.453125 L 5.410156 -3.398438 L -2.496094 -15.988281 L 12.929688 -8.121094 L 16.15625 -10.148438 L 4.886719 -28.097656 L 1.785156 -26.148438 L 9.675781 -13.585938 L -5.757812 -21.410156 L -8.960938 -19.402344 Z M 2.3125 -1.453125 "/></g></g></g><g fill="#ffffff" fill-opacity="1"><g transform="translate(272.607631, 300.789455)"><g><path d="M 0.132812 -0.121094 L 3.191406 -2.9375 L 1.285156 -7.441406 L 7.34375 -13.019531 L 11.667969 -10.738281 L 14.691406 -13.519531 L -5.875 -23.398438 L -7.972656 -21.46875 Z M 0.03125 -10.710938 L -3.125 -18.324219 L 4.191406 -14.539062 Z M 0.03125 -10.710938 "/></g></g></g><g fill="#ffffff" fill-opacity="1"><g transform="translate(289.931737, 284.200735)"><g><path d="M 1.6875 -2.144531 L 9.644531 -12.261719 L 6.816406 -14.484375 L 1.214844 -7.367188 L -12.613281 -18.246094 L -14.96875 -15.25 Z M 1.6875 -2.144531 "/></g></g></g><g fill="#ffffff" fill-opacity="1"><g transform="translate(103.464861, 199.995544)"><g><path d="M 0.71875 0 L 11.484375 -31.609375 L 14.328125 -31.609375 L 25.109375 0 L 21.40625 0 L 18.890625 -7.828125 L 6.921875 -7.828125 L 4.40625 0 Z M 17.84375 -11.15625 L 12.90625 -26.671875 L 7.96875 -11.15625 Z M 17.84375 -11.15625 "/></g></g></g><g fill="#ffffff" fill-opacity="1"><g transform="translate(138.769438, 199.995544)"><g><path d="M 3.5625 -31.609375 L 7.078125 -31.609375 L 7.078125 -3.328125 L 20.171875 -3.328125 L 20.171875 0 L 3.5625 0 Z M 3.5625 -31.609375 "/></g></g></g><g fill="#ffffff" fill-opacity="1"><g transform="translate(171.037269, 199.995544)"><g><path d="M 6.59375 -15.796875 C 6.59375 -13.804688 6.609375 -12.359375 6.640625 -11.453125 C 6.671875 -10.554688 6.78125 -9.601562 6.96875 -8.59375 C 7.164062 -7.582031 7.453125 -6.742188 7.828125 -6.078125 C 9.035156 -4.046875 11.046875 -3.03125 13.859375 -3.03125 C 16.671875 -3.03125 18.679688 -4.046875 19.890625 -6.078125 C 20.453125 -6.992188 20.796875 -8.125 20.921875 -9.46875 C 21.046875 -10.8125 21.109375 -12.921875 21.109375 -15.796875 C 21.109375 -17.796875 21.09375 -19.242188 21.0625 -20.140625 C 21.03125 -21.046875 20.921875 -22.003906 20.734375 -23.015625 C 20.546875 -24.023438 20.265625 -24.863281 19.890625 -25.53125 C 18.679688 -27.550781 16.671875 -28.5625 13.859375 -28.5625 C 11.046875 -28.5625 9.035156 -27.550781 7.828125 -25.53125 C 7.253906 -24.613281 6.90625 -23.484375 6.78125 -22.140625 C 6.65625 -20.796875 6.59375 -18.679688 6.59375 -15.796875 Z M 3.078125 -15.796875 C 3.078125 -18.109375 3.101562 -19.769531 3.15625 -20.78125 C 3.207031 -21.789062 3.359375 -22.890625 3.609375 -24.078125 C 3.859375 -25.265625 4.253906 -26.300781 4.796875 -27.1875 C 5.679688 -28.644531 6.921875 -29.789062 8.515625 -30.625 C 10.117188 -31.46875 11.898438 -31.890625 13.859375 -31.890625 C 15.816406 -31.890625 17.59375 -31.46875 19.1875 -30.625 C 20.789062 -29.789062 22.035156 -28.644531 22.921875 -27.1875 C 23.710938 -25.925781 24.191406 -24.535156 24.359375 -23.015625 C 24.535156 -21.492188 24.625 -19.085938 24.625 -15.796875 C 24.625 -13.492188 24.597656 -11.832031 24.546875 -10.8125 C 24.503906 -9.800781 24.359375 -8.703125 24.109375 -7.515625 C 23.859375 -6.328125 23.460938 -5.289062 22.921875 -4.40625 C 22.035156 -2.957031 20.789062 -1.8125 19.1875 -0.96875 C 17.59375 -0.132812 15.816406 0.28125 13.859375 0.28125 C 11.898438 0.28125 10.117188 -0.132812 8.515625 -0.96875 C 6.921875 -1.8125 5.679688 -2.957031 4.796875 -4.40625 C 4.003906 -5.675781 3.519531 -7.066406 3.34375 -8.578125 C 3.164062 -10.097656 3.078125 -12.503906 3.078125 -15.796875 Z M 3.078125 -15.796875 "/></g></g></g><g fill="#ffffff" fill-opacity="1"><g transform="translate(208.239806, 199.995544)"><g><path d="M 3.5625 -31.609375 L 7.078125 -31.609375 L 7.078125 -17.9375 L 20.921875 -17.9375 L 20.921875 -31.609375 L 24.4375 -31.609375 L 24.4375 0 L 20.921875 0 L 20.921875 -14.609375 L 7.078125 -14.609375 L 7.078125 0 L 3.5625 0 Z M 3.5625 -31.609375 "/></g></g></g><g fill="#ffffff" fill-opacity="1"><g transform="translate(245.727031, 199.995544)"><g><path d="M 0.71875 0 L 11.484375 -31.609375 L 14.328125 -31.609375 L 25.109375 0 L 21.40625 0 L 18.890625 -7.828125 L 6.921875 -7.828125 L 4.40625 0 Z M 17.84375 -11.15625 L 12.90625 -26.671875 L 7.96875 -11.15625 Z M 17.84375 -11.15625 "/></g></g></g></svg>